<?xml version="1.0" standalone="no"?><!DOCTYPE svg PUBLIC "-//W3C//DTD SVG 1.1//EN" "http://www.w3.org/Graphics/SVG/1.1/DTD/svg11.dtd"><svg t="1667462924025" class="icon" viewBox="0 0 1024 1024" version="1.1" xmlns="http://www.w3.org/2000/svg" p-id="4422" xmlns:xlink="http://www.w3.org/1999/xlink" width="750" height="750"><path d="M716.16 835.84H497.28c-17.92 0-32-14.08-32-32s14.08-32 32-32h218.88c88.96 0 163.84-70.4 167.04-156.8 1.28-44.8-14.72-87.04-45.44-119.04-30.72-32-72.32-49.92-117.12-49.92-7.68 0-16 0.64-23.68 1.92-25.6 3.84-49.92-13.44-53.76-39.04C627.2 314.24 542.72 247.68 445.44 256c-87.68 7.04-158.08 75.52-167.68 162.56-3.2 30.08 0 59.52 10.88 87.04 3.84 10.24 2.56 21.76-4.48 30.72-6.4 8.96-17.28 13.44-28.16 12.8h-1.28c-2.56 0-4.48-0.64-7.04-0.64-30.72 0-59.52 12.16-80.64 34.56-21.12 22.4-32 51.84-30.72 82.56 2.56 58.24 54.4 106.24 115.2 106.24H339.2c17.92 0 32 14.08 32 32s-14.08 32-32 32H252.16c-96 0-174.72-73.6-179.2-167.04-2.56-48.64 14.72-94.72 48.64-129.92 26.24-27.52 59.52-45.44 96-51.84-5.12-24.96-5.76-49.92-3.2-76.16 12.8-117.12 108.16-209.28 225.92-218.88 122.88-10.24 235.52 72.96 263.04 191.36 5.76-0.64 12.16-0.64 17.92-0.64 62.08 0 119.68 24.32 163.2 69.12 42.88 44.8 65.28 103.68 63.36 165.76-5.12 120.32-108.8 218.24-231.68 218.24z" fill="#515151" p-id="4423"></path><path d="M496 821.12c-17.92 0-32-14.08-32-32V599.04l-54.4 46.72c-13.44 11.52-33.92 10.24-45.44-3.2-11.52-13.44-10.24-33.92 3.2-45.44l107.52-92.16c9.6-8.32 23.04-10.24 33.92-5.12 11.52 5.12 18.56 16.64 18.56 28.8v260.48c0.64 17.92-13.44 32-31.36 32zM622.72 652.8c-7.04 0-14.08-2.56-20.48-7.04l-42.24-34.56c-13.44-11.52-15.36-31.36-4.48-44.8 11.52-13.44 31.36-15.36 44.8-4.48l42.24 34.56c13.44 11.52 15.36 31.36 4.48 44.8-5.76 7.68-15.36 11.52-24.32 11.52z" fill="#515151" p-id="4424"></path></svg>