<?xml version="1.0" standalone="no"?><!DOCTYPE svg PUBLIC "-//W3C//DTD SVG 1.1//EN" "http://www.w3.org/Graphics/SVG/1.1/DTD/svg11.dtd"><svg t="1667653460927" class="icon" viewBox="0 0 1024 1024" version="1.1" xmlns="http://www.w3.org/2000/svg" p-id="3481" xmlns:xlink="http://www.w3.org/1999/xlink" width="750" height="750"><path d="M170.399963 934.000032a95.999966 95.999966 0 0 0 95.799966 89.999968h491.599827a95.999966 95.999966 0 0 0 95.799966-89.999968L895.999708 256.00027H127.999978z m140.21995-351.599877l178.759937-188.519933a30.819989 30.819989 0 0 1 45.239985 0l178.759937 188.519933c20.159993 21.239993 5.879998 57.59998-22.639992 57.59998H575.99982v223.999921a31.999989 31.999989 0 0 1-31.999989 31.999989h-63.999977a31.999989 31.999989 0 0 1-31.999989-31.999989V640.000135h-114.73996c-28.51999 0-42.799985-36.359987-22.639992-57.59998zM927.999696 64.000337H687.999781l-18.799994-37.399986A47.999983 47.999983 0 0 0 626.199802 0.00036H397.599883a47.439983 47.439983 0 0 0-42.799985 26.599991L335.999904 64.000337H95.999989A31.999989 31.999989 0 0 0 64 96.000326v63.999978a31.999989 31.999989 0 0 0 31.999989 31.999988h831.999707a31.999989 31.999989 0 0 0 31.999989-31.999988V96.000326a31.999989 31.999989 0 0 0-31.999989-31.999989z" p-id="3482"></path></svg>